# xmcd
#
# Track frame offsets: 
#        150
#        5468
#        22213
#        29881
#        46792
#        61939
#        75268
#        95132
#        108246
#        120280
#        134082
#        148607
#        158520
#        161945
#        180890
#        196651
#
# Disc length: 2855 seconds
#
# Revision: 1
# Processed by: cddbd v1.4PL0 Copyright (c) Steve Scherf et al.
# Submitted via: ExactAudioCopy v0.90b4
#
DISCID=cb0b2510
DTITLE=Dale Watson - Preachin' To The Choir - Disc 1
DYEAR=2001
DGENRE=Country
TTITLE0=Welcome To The Borderline
TTITLE1=In The Jailhouse
TTITLE2=Introducing The Band
TTITLE3=Hangover Ago
TTITLE4=Luckenbach, Texas
TTITLE5=Can't Be Satisfied
TTITLE6=Legends (What If...)
TTITLE7=I Got Stripes
TTITLE8=Ain't That Livin'
TTITLE9=Hair Of The Dog
TTITLE10=Bourbon Vs. Tequila
TTITLE11=Kentucky In A Spin
TTITLE12=Frank
TTITLE13=Smalltown
TTITLE14=Drink, Drink, Drink
TTITLE15=How To Break Your Own Heart
EXTD=
EXTT0=
EXTT1=
EXTT2=
EXTT3=
EXTT4=
EXTT5=
EXTT6=
EXTT7=
EXTT8=
EXTT9=
EXTT10=
EXTT11=
EXTT12=
EXTT13=
EXTT14=
EXTT15=
PLAYORDER=
